<?xml version="1.0" standalone="no"?><!DOCTYPE svg PUBLIC "-//W3C//DTD SVG 1.1//EN" "http://www.w3.org/Graphics/SVG/1.1/DTD/svg11.dtd"><svg t="1740583255035" class="icon" viewBox="0 0 1024 1024" version="1.1" xmlns="http://www.w3.org/2000/svg" p-id="1362" xmlns:xlink="http://www.w3.org/1999/xlink" width="200" height="200"><path d="M227.98 278.04m60.53 0l545.48 0q60.53 0 60.53 60.53l0 346.53q0 60.53-60.53 60.53l-545.48 0q-60.53 0-60.53-60.53l0-346.53q0-60.53 60.53-60.53Z" fill="#F9EE8C" p-id="1363"></path><path d="M846.35 603.94H381.18c-9.67 0-17.5-7.83-17.5-17.5s7.83-17.5 17.5-17.5h465.17c9.67 0 17.5 7.83 17.5 17.5s-7.83 17.5-17.5 17.5zM224.9 603.94h-44.31c-9.67 0-17.5-7.83-17.5-17.5s7.83-17.5 17.5-17.5h44.31c9.67 0 17.5 7.83 17.5 17.5s-7.83 17.5-17.5 17.5z" fill="#222222" p-id="1364"></path><path d="M786.22 714.09H240.73c-43.02 0-78.03-35-78.03-78.03V289.53c0-43.02 35-78.03 78.03-78.03h545.49c43.02 0 78.03 35 78.03 78.03v346.54c0 43.02-35 78.03-78.03 78.03zM240.73 246.5c-23.73 0-43.03 19.3-43.03 43.03v346.54c0 23.73 19.3 43.03 43.03 43.03h545.49c23.73 0 43.03-19.3 43.03-43.03V289.53c0-23.72-19.3-43.03-43.03-43.03H240.73z" fill="#222222" p-id="1365"></path><path d="M593.33 813H433.62c-12.74 0-24.7-5.63-32.82-15.46-8.11-9.82-11.39-22.63-8.98-35.15l10.05-52.25c1.83-9.49 11-15.7 20.49-13.88 9.49 1.83 15.71 11 13.88 20.49L426.19 769c-0.59 3.04 0.75 5.22 1.6 6.25 0.85 1.03 2.73 2.75 5.83 2.75h159.71c3.1 0 4.99-1.72 5.83-2.75 0.85-1.03 2.18-3.2 1.6-6.25l-10.05-52.25c-1.83-9.49 4.39-18.66 13.88-20.49 9.49-1.81 18.67 4.39 20.49 13.88l10.05 52.25c2.41 12.51-0.87 25.32-8.98 35.15A42.446 42.446 0 0 1 593.33 813z" fill="#222222" p-id="1366"></path><path d="M302.5 586.5m-19.5 0a19.5 19.5 0 1 0 39 0 19.5 19.5 0 1 0-39 0Z" fill="#222222" p-id="1367"></path></svg>